# xmcd
#
# Track frame offsets:
#	150
#	14165
#	32884
#	50178
#	63953
#	79195
#	95710
#	113000
#	127937
#	145788
#	160040
#	180717
#	199573
#	215457
#	232417
#	243811
#	263408
#
# Disc length: 3685 seconds
#
# Revision: 4
# Processed by: cddbd v1.5.1PL0 Copyright (c) Steve Scherf et al.
# Submitted via: audiograbber 1.83.01
#
DISCID=ed0e6311
DTITLE=1997-02 Country Radio - 1997-02 Country Radio
DYEAR=1997
DGENRE=Country
TTITLE0=Bryan White - Sittin' On Go
TTITLE1=John Michael Montgomery - I Miss You A Little
TTITLE2=Burnin' Daylight - Say Yes
TTITLE3=Tammy Graham - A Dozen Red Roses
TTITLE4=BR5-49 - Little Romona (Gone Hillbilly Nuts )
TTITLE5=Aaron Tippin - That's What Happens When I Hold You
TTITLE6=David Kersh - Another You
TTITLE7=Kevin Sharp - She's Sure Taking It Well
TTITLE8=Mila Mason - Dark Horse
TTITLE9=Jack Ingram - That's Not Me
TTITLE10=Jamie Warren - The Secret
TTITLE11=Caryl Mack Parker - One Night Stand
TTITLE12=Royal Wade Kimes - Another Man's Sky
TTITLE13=Crystal Bernard - State Of Mind
TTITLE14=Three Hanks - Moanin' The Blues
TTITLE15=David Morgan - Wonderful Tonight
TTITLE16=Florida Outbound - Quittin' Time
EXTD=
EXTT0=
EXTT1=
EXTT2=
EXTT3=
EXTT4=
EXTT5=
EXTT6=
EXTT7=
EXTT8=
EXTT9=
EXTT10=
EXTT11=
EXTT12=
EXTT13=
EXTT14=
EXTT15=
EXTT16=
PLAYORDER=
